<svg width="119" height="34" viewBox="0 0 119 34" fill="none" xmlns="http://www.w3.org/2000/svg">
<path fill-rule="evenodd" clip-rule="evenodd" d="M20.124 14.6498V17.5237C20.124 18.9463 19.8418 20.2707 19.2866 21.4992C18.7245 22.7278 17.9527 23.8008 16.9693 24.7227C15.9839 25.647 14.8228 26.3703 13.4938 26.9044C13.406 26.9404 13.3207 26.9716 13.2332 27.0005C13.1479 26.9716 13.0604 26.9404 12.9752 26.9044C11.6609 26.3703 10.5096 25.647 9.52874 24.7227C8.54042 23.8008 7.76895 22.7278 7.21144 21.4992C6.65163 20.2707 6.37402 18.9463 6.37402 17.5237V6.37549L20.124 14.6498Z" fill="white"/>
<path fill-rule="evenodd" clip-rule="evenodd" d="M28.25 9.92945V17.8089C28.25 19.2682 27.9603 20.6265 27.3833 21.8862C26.8066 23.1462 26.0079 24.247 24.9878 25.1923C23.9649 26.1405 22.771 26.8824 21.3905 27.4301C20.0151 27.9779 18.5441 28.2505 16.9797 28.2505C16.7756 28.2505 16.5792 28.2455 16.375 28.2357C17.0676 27.7937 17.7152 27.2927 18.3122 26.735C19.5314 25.5927 20.5039 24.247 21.2168 22.7094C21.927 21.1644 22.2846 19.5309 22.2846 17.8089V6.37549L28.25 9.92945Z" fill="white"/>
<path fill-rule="evenodd" clip-rule="evenodd" d="M33.251 18.4411V11.3755H35.2962V18.3713C35.2962 20.2245 36.3187 21.4316 38.2597 21.4316C40.1833 21.4316 41.2063 20.2245 41.2063 18.3713V11.3755H43.251V18.4235C43.251 21.3267 41.6047 23.2505 38.2597 23.2505C34.8975 23.2505 33.251 21.3094 33.251 18.4411Z" fill="white"/>
<path fill-rule="evenodd" clip-rule="evenodd" d="M45.7485 23.2502V14.6952H47.5022V15.953C48.1032 15.138 49.0717 14.5002 50.1235 14.5002V16.3424C49.9738 16.307 49.7903 16.2892 49.5728 16.2892C48.838 16.2892 47.8525 16.8208 47.5022 17.4229V23.2502H45.7485Z" fill="white"/>
<path fill-rule="evenodd" clip-rule="evenodd" d="M54.5648 15.9844C52.9347 15.9844 52.1916 17.1752 52.1011 18.1935H57.0284C56.9926 17.2099 56.2856 15.9844 54.5648 15.9844ZM50.1265 18.8667C50.1265 16.4505 51.9742 14.5002 54.5648 14.5002C57.1917 14.5002 58.8765 16.4158 58.8765 19.0394V19.4708H52.1193C52.2641 20.7305 53.2604 21.7664 54.9093 21.7664C55.7605 21.7664 56.7752 21.4382 57.3909 20.8517L58.2606 22.0423C57.3909 22.8361 56.1047 23.2502 54.7096 23.2502C52.0829 23.2502 50.1265 21.507 50.1265 18.8667Z" fill="white"/>
<path fill-rule="evenodd" clip-rule="evenodd" d="M63.9383 15.9844C62.3079 15.9844 61.5651 17.1752 61.4743 18.1935H66.402C66.3661 17.2099 65.6592 15.9844 63.9383 15.9844ZM59.5 18.8667C59.5 16.4505 61.3477 14.5002 63.9383 14.5002C66.5653 14.5002 68.25 16.4158 68.25 19.0394V19.4708H61.4925C61.6373 20.7305 62.6339 21.7664 64.2828 21.7664C65.134 21.7664 66.1485 21.4382 66.7644 20.8517L67.6338 22.0423C66.7644 22.8361 65.4782 23.2502 64.0831 23.2502C61.4561 23.2502 59.5 21.507 59.5 18.8667Z" fill="white"/>
<path fill-rule="evenodd" clip-rule="evenodd" d="M75.2024 20.5049V17.1468C74.7918 16.5174 73.9196 16.0101 73.0644 16.0101C71.6446 16.0101 70.7381 17.182 70.7381 18.8257C70.7381 20.4524 71.6446 21.6241 73.0644 21.6241C73.9196 21.6241 74.7918 21.1347 75.2024 20.5049ZM75.2024 23.0409V21.8866C74.5694 22.7259 73.6115 23.2505 72.5514 23.2505C70.4303 23.2505 68.8735 21.6068 68.8735 18.8257C68.8735 16.0974 70.4131 14.3837 72.5514 14.3837C73.5774 14.3837 74.5355 14.8733 75.2024 15.7654V11.3755H76.9985V23.0409H75.2024Z" fill="white"/>
<path fill-rule="evenodd" clip-rule="evenodd" d="M78.8755 22.0006C78.8755 21.3217 79.447 20.7505 80.1253 20.7505C80.8043 20.7505 81.3755 21.3217 81.3755 22.0006C81.3755 22.6793 80.8043 23.2505 80.1253 23.2505C79.447 23.2505 78.8755 22.6793 78.8755 22.0006Z" fill="white"/>
<path fill-rule="evenodd" clip-rule="evenodd" d="M82.0005 18.8667C82.0005 16.3467 83.7765 14.5002 86.3109 14.5002C87.9313 14.5002 88.9141 15.1905 89.5005 15.9844L88.3109 17.0888C87.8455 16.4332 87.2073 16.1052 86.3973 16.1052C84.8801 16.1052 83.88 17.2444 83.88 18.8667C83.88 20.4891 84.8801 21.6452 86.3973 21.6452C87.2073 21.6452 87.8455 21.3002 88.3109 20.6617L89.5005 21.7661C88.9141 22.5599 87.9313 23.2502 86.3109 23.2502C83.7765 23.2502 82.0005 21.4038 82.0005 18.8667Z" fill="white"/>
<path fill-rule="evenodd" clip-rule="evenodd" d="M96.9574 18.8667C96.9574 17.3997 96.0771 16.1052 94.4929 16.1052C92.9258 16.1052 92.0452 17.3997 92.0452 18.8667C92.0452 20.3508 92.9258 21.6452 94.4929 21.6452C96.0771 21.6452 96.9574 20.3508 96.9574 18.8667ZM90.1265 18.8667C90.1265 16.485 91.7989 14.5002 94.4929 14.5002C97.2218 14.5002 98.8765 16.485 98.8765 18.8667C98.8765 21.2658 97.2218 23.2502 94.4929 23.2502C91.7989 23.2502 90.1265 21.2658 90.1265 18.8667Z" fill="white"/>
<mask id="mask0" mask-type="alpha" maskUnits="userSpaceOnUse" x="100" y="13" width="13" height="11">
<path d="M100.399 13.9353H112.415V23.0191H100.399V13.9353Z" fill="white"/>
</mask>
<g mask="url(#mask0)">
<path fill-rule="evenodd" clip-rule="evenodd" d="M110.605 23.0191V17.2386C110.605 16.2842 110.208 15.6419 109.243 15.6419C108.433 15.6419 107.674 16.2473 107.312 16.8165V23.0191H105.502V17.2386C105.502 16.2842 105.106 15.6419 104.123 15.6419C103.33 15.6419 102.589 16.2473 102.21 16.8346V23.0191H100.399V14.1555H102.21V15.3667C102.555 14.8163 103.658 13.9353 104.916 13.9353C106.157 13.9353 106.916 14.5961 107.191 15.5684C107.674 14.7609 108.778 13.9353 110.019 13.9353C111.553 13.9353 112.415 14.8163 112.415 16.6144V23.0191H110.605Z" fill="white"/>
</g>
<path fill-rule="evenodd" clip-rule="evenodd" d="M20.124 14.6498V17.5237C20.124 18.9463 19.8418 20.2707 19.2866 21.4992C18.7245 22.7278 17.9527 23.8008 16.9693 24.7227C15.9839 25.647 14.8228 26.3703 13.4938 26.9044C13.406 26.9404 13.3207 26.9716 13.2332 27.0005C13.1479 26.9716 13.0604 26.9404 12.9752 26.9044C11.6609 26.3703 10.5096 25.647 9.52874 24.7227C8.54042 23.8008 7.76895 22.7278 7.21144 21.4992C6.65163 20.2707 6.37402 18.9463 6.37402 17.5237V6.37549L20.124 14.6498Z" fill="white"/>
<path fill-rule="evenodd" clip-rule="evenodd" d="M28.25 9.92945V17.8089C28.25 19.2682 27.9603 20.6265 27.3833 21.8862C26.8066 23.1462 26.0079 24.247 24.9878 25.1923C23.9649 26.1405 22.771 26.8824 21.3905 27.4301C20.0151 27.9779 18.5441 28.2505 16.9797 28.2505C16.7756 28.2505 16.5792 28.2455 16.375 28.2357C17.0676 27.7937 17.7152 27.2927 18.3122 26.735C19.5314 25.5927 20.5039 24.247 21.2168 22.7094C21.927 21.1644 22.2846 19.5309 22.2846 17.8089V6.37549L28.25 9.92945Z" fill="white"/>
</svg>
